<?xml version="1.0" encoding="UTF-8"?>
<svg version="1.1" xmlns="http://www.w3.org/2000/svg" width="1151" height="544">
<path d="M0 0 C379.83 0 759.66 0 1151 0 C1151 179.52 1151 359.04 1151 544 C771.17 544 391.34 544 0 544 C0 364.48 0 184.96 0 0 Z " fill="#FEFEFE" transform="translate(0,0)"/>
<path d="M0 0 C32.01 0 64.02 0 97 0 C97 10.89 97 21.78 97 33 C89.08 33 81.16 33 73 33 C75.97784761 44.84859302 78.95863485 56.69643563 81.94467068 68.5429678 C83.33094085 74.0432346 84.71589655 79.54382556 86.09790039 85.04516602 C87.43052388 90.34973707 88.76653188 95.65344491 90.1049366 100.95656013 C90.61611789 102.98454186 91.12605846 105.01283673 91.63476372 107.04144096 C92.34498708 109.87277479 93.05953027 112.70298418 93.77514648 115.53295898 C94.09235405 116.80394188 94.09235405 116.80394188 94.41596985 118.1006012 C95.10289326 121.85437162 95.10289326 121.85437162 97 125 C97.17539307 124.34854004 97.35078613 123.69708008 97.53149414 123.02587891 C102.60432943 104.18391927 107.67716471 85.34195964 112.75 66.5 C113.03883057 65.42709717 113.32766113 64.35419434 113.62524414 63.2487793 C114.20755347 61.08612503 114.79007238 58.92352719 115.37280273 56.76098633 C116.84854315 51.28337787 118.32041985 45.80478078 119.78515625 40.32421875 C123.39291473 26.84275081 127.12858012 13.40833227 131 0 C142.22 0 153.44 0 165 0 C165.98097656 4.00769531 166.96195313 8.01539063 167.97265625 12.14453125 C174.87340681 40.30197146 181.81757931 68.44786112 188.9433403 96.54931259 C189.43851921 98.50402333 189.93234233 100.45907215 190.42581177 102.41421509 C191.3413349 106.03752138 192.26161177 109.6595826 193.18359375 113.28125 C193.45577728 114.36041183 193.72796082 115.43957367 194.00839233 116.55143738 C194.25755402 117.52510757 194.5067157 118.49877777 194.76342773 119.50195312 C195.08741798 120.77673523 195.08741798 120.77673523 195.41795349 122.07727051 C195.83154028 123.98884153 195.83154028 123.98884153 197 125 C197.17539307 124.34854004 197.35078613 123.69708008 197.53149414 123.02587891 C197.78020264 122.10210449 198.02891113 121.17833008 198.28515625 120.2265625 C198.56496338 119.18717529 198.84477051 118.14778809 199.13305664 117.0769043 C199.76093966 114.74497941 200.38903755 112.41311236 201.01733398 110.08129883 C202.62064617 104.12972434 204.22107285 98.17742067 205.8125 92.22265625 C208.73645576 81.2957824 211.71795198 70.39218465 214.8581543 59.52539062 C217.39136372 50.72229462 219.69877981 41.86646603 222 33 C214.41 33 206.82 33 199 33 C199 22.11 199 11.22 199 0 C222.76 0 246.52 0 271 0 C271 10.89 271 21.78 271 33 C264.07 33 257.14 33 250 33 C249.34 35.97 248.68 38.94 248 42 C246.00633362 50.95337449 243.81976733 59.7983058 241.24926758 68.60302734 C237.89653312 80.22032689 234.81588221 91.90286665 231.76171875 103.6015625 C231.18999437 105.78402659 230.6180343 107.96642894 230.04585266 110.14877319 C228.55982735 115.81857728 227.07637492 121.48905086 225.59368896 127.159729 C223.20444685 136.29620245 220.81165097 145.43174505 218.41797829 154.56705856 C217.58549687 157.74599557 216.75441668 160.92529646 215.92350769 164.10464478 C215.41738921 166.03803563 214.91123191 167.97141633 214.4050293 169.90478516 C214.17493164 170.7867305 213.94483398 171.66867584 213.70776367 172.5773468 C213.49629196 173.38412369 213.28482025 174.19090057 213.06694031 175.02212524 C212.88392207 175.72214472 212.70090384 176.42216419 212.51233959 177.14339638 C212.06130417 178.77784746 211.53617752 180.39146745 211 182 C193.84 182 176.68 182 159 182 C154.7083574 165.08299553 154.7083574 165.08299553 152.84570312 157.73828125 C151.58653944 152.77322524 150.32730981 147.80818604 149.06762695 142.84326172 C140.14239733 107.66460447 140.14239733 107.66460447 136 91 C134.24655983 95.55095069 132.62798605 99.99621696 131.44921875 104.734375 C131.02962891 106.39521118 131.02962891 106.39521118 130.6015625 108.08959961 C130.14910156 109.9014978 130.14910156 109.9014978 129.6875 111.75 C128.99805994 114.47643392 128.30282099 117.20136102 127.60546875 119.92578125 C127.41286469 120.67827652 127.22026062 121.43077179 127.02182007 122.20606995 C121.88123063 142.18812806 116.38024171 162.08275904 111 182 C93.84 182 76.68 182 59 182 C49.83144882 145.93922283 40.68933209 109.87193491 31.65029907 73.77844238 C30.7994147 70.3808051 29.9474548 66.98344038 29.09457397 63.58630371 C28.08839783 59.57808326 27.08459017 55.56927728 26.08269691 51.55998421 C25.7128265 50.08134392 25.34217152 48.60289965 24.97069359 47.1246624 C24.46442261 45.10928665 23.96106793 43.09320515 23.45849609 41.0769043 C23.17525482 39.94536423 22.89201355 38.81382416 22.60018921 37.647995 C22 35 22 35 22 33 C14.74 33 7.48 33 0 33 C0 22.11 0 11.22 0 0 Z " fill="#4A2A84" transform="translate(142,121)"/>
<path d="M0 0 C6.20796268 4.08014508 9.78164865 11.61087094 13.57324219 17.84521484 C17.9715854 25.07294989 22.66875908 32.09611915 27.375 39.125 C27.77144714 39.71762634 28.16789429 40.31025269 28.57635498 40.9208374 C30.39990279 43.64648299 32.22515248 46.37096734 34.05224609 49.09423828 C35.43101786 51.15116252 36.78585332 53.22422539 38.12353516 55.30810547 C39.72395878 58.06114939 39.72395878 58.06114939 42 59 C41.99111755 58.33458694 41.98223511 57.66917389 41.9730835 56.9835968 C41.8845781 50.05694164 41.82425209 43.13044716 41.78027344 36.20336914 C41.76016028 33.61834183 41.73286614 31.03336 41.69824219 28.44848633 C41.64971346 24.73247045 41.62702765 21.01705622 41.609375 17.30078125 C41.57840729 15.56771477 41.57840729 15.56771477 41.54681396 13.79963684 C41.5445754 5.79196734 41.5445754 5.79196734 43.85839844 1.76831055 C46.56709273 -0.46824585 48.0178254 -0.61479696 51.5 -0.5 C52.4384375 -0.4896875 53.376875 -0.479375 54.34375 -0.46875 C57.38172677 0.06736355 58.7909538 0.87128275 61 3 C62.22996234 6.68988702 62.16349627 10.11264212 62.17700195 13.95629883 C62.18357315 14.76639908 62.19014435 15.57649933 62.19691467 16.41114807 C62.21663172 19.09311008 62.22830634 21.77501615 62.23828125 24.45703125 C62.24235678 25.37352636 62.2464323 26.29002148 62.25063133 27.23428917 C62.27148468 32.08465728 62.28578992 36.93499716 62.29516602 41.78540039 C62.30623254 46.7924434 62.34063731 51.79904226 62.38033772 56.80592823 C62.40649338 60.65871502 62.41485689 64.51139577 62.41844749 68.36426353 C62.42331569 70.20982553 62.43493635 72.05538272 62.45348549 73.90085793 C62.47785623 76.48610191 62.47691599 79.07019368 62.4699707 81.65551758 C62.48278076 82.41469482 62.49559082 83.17387207 62.50878906 83.95605469 C62.45856948 89.09604197 61.32351615 92.08690546 58 96 C55.16511195 96.94496268 53.14441383 97.2261999 50.1875 97.3125 C48.94033203 97.36857422 48.94033203 97.36857422 47.66796875 97.42578125 C42.96083153 96.67456901 39.94559762 94.12826988 36.9375 90.5390625 C36.298125 89.57742187 35.65875 88.61578125 35 87.625 C34.63100586 87.07465088 34.26201172 86.52430176 33.88183594 85.95727539 C29.70925568 79.67904072 25.6846418 73.29859603 21.6640625 66.92236328 C15.5429844 57.21675574 9.26535191 47.61284854 3 38 C2.99413376 38.6403569 2.98826752 39.28071381 2.98222351 39.94047546 C2.91826807 46.60798718 2.83384241 53.2750172 2.73754883 59.94213867 C2.70430343 62.43002978 2.67627034 64.91799624 2.65356445 67.40600586 C2.6200123 70.98323668 2.56769408 74.55977719 2.51171875 78.13671875 C2.50213387 79.80416389 2.50213387 79.80416389 2.49235535 81.5052948 C2.47256119 82.54599625 2.45276703 83.58669769 2.43237305 84.65893555 C2.42126999 85.5716069 2.41016693 86.48427826 2.39872742 87.42460632 C1.91271464 90.56377903 0.85662422 92.43816534 -1 95 C-5.00254616 97.66836411 -8.29313299 97.8340238 -13 97 C-15.75569447 94.81840855 -17.43588747 93.12822506 -19 90 C-19.10854136 87.46873617 -19.1573121 84.9645647 -19.16113281 82.43261719 C-19.16609772 81.65192368 -19.17106262 80.87123016 -19.17617798 80.06687927 C-19.19081574 77.47686896 -19.19760516 74.88691994 -19.203125 72.296875 C-19.20887624 70.4980672 -19.21463398 68.69925942 -19.22039795 66.90045166 C-19.23091329 63.12422398 -19.2367521 59.34801761 -19.24023438 55.57177734 C-19.24571251 50.73853772 -19.26972367 45.90558076 -19.29820633 41.07242966 C-19.31685533 37.35432114 -19.32203957 33.6362803 -19.32357025 29.91812897 C-19.32659348 28.13677682 -19.3346109 26.35542578 -19.34775543 24.57411957 C-19.36485922 22.07751679 -19.36292499 19.58159895 -19.35644531 17.08496094 C-19.3656601 16.35226486 -19.37487488 15.61956879 -19.3843689 14.8646698 C-19.33946996 9.32679644 -18.13732369 5.13732369 -14.171875 1.171875 C-9.65273674 -1.26650895 -4.9254729 -1.04364025 0 0 Z " fill="#030203" transform="translate(743,161)"/>
<path d="M0 0 C1.03447266 -0.02900391 2.06894531 -0.05800781 3.13476562 -0.08789062 C13.38069035 -0.17129515 22.24777558 2.16637309 29.77734375 9.38671875 C33.22410789 13.38496515 35.15728539 17.27093641 35.875 22.5 C35.36971938 25.74823253 34.39030828 27.68371962 32.4375 30.3125 C28.68906174 32.18671913 24.51022194 31.97084808 20.4375 31.3125 C18.06302912 29.20785536 16.99413724 27.94065808 15.4375 25.3125 C14.44713426 23.72312272 13.44668781 22.13999307 12.4375 20.5625 C11.756875 19.42554688 11.756875 19.42554688 11.0625 18.265625 C8.59580431 15.30084653 5.94626445 14.51454324 2.19140625 14.01171875 C-3.76152697 13.97988488 -7.99337003 14.8290077 -12.4375 19.125 C-13.9945063 22.15251225 -14.11157201 23.94943396 -13.5625 27.3125 C-9.99642171 31.6792638 -6.5043715 33.38988461 -1.1875 34.8125 C0.2398846 35.22943875 1.66696106 35.64743365 3.09375 36.06640625 C3.815625 36.27281738 4.5375 36.47922852 5.28125 36.69189453 C30.41996471 43.92724471 30.41996471 43.92724471 37.37890625 55.1640625 C40.86901814 62.24731541 40.26546553 70.63665529 37.9375 78 C34.23826084 87.03542388 27.91064326 91.61224009 19.1484375 95.40234375 C7.64709318 99.26374609 -8.38485842 98.89109662 -19.5625 94.3125 C-27.6581357 90.05710174 -33.63475788 84.09572635 -36.5625 75.3125 C-37.10298493 71.27596696 -37.61144069 67.15815519 -35.5390625 63.51171875 C-33.4179644 61.43163636 -31.27068463 60.4019549 -28.3359375 60.03125 C-24.02334366 60.20433069 -22.02429187 60.90201834 -18.75 63.8125 C-16.9420796 66.367036 -15.76535375 69.05635623 -14.5625 71.9375 C-12.88846426 75.90583174 -11.38599784 78.08953614 -7.5625 80.3125 C-1.74703435 82.57406997 2.72789792 82.73563825 8.5859375 80.48828125 C12.69226894 78.69309692 12.69226894 78.69309692 15.65625 75.4609375 C16.5227036 73.0781901 16.67206041 71.27842724 16.625 68.75 C16.61533203 67.60337891 16.61533203 67.60337891 16.60546875 66.43359375 C16.50803505 64.12352284 16.50803505 64.12352284 15.4375 61.3125 C12.42076835 59.40974495 9.08746791 58.51394982 5.6875 57.5 C3.97046875 56.97792969 3.97046875 56.97792969 2.21875 56.4453125 C-0.40387247 55.65960949 -3.02831293 54.88449554 -5.65625 54.1171875 C-26.29991958 48.00745622 -26.29991958 48.00745622 -32.5625 38.3125 C-35.92803681 31.84913954 -36.44567033 25.9325868 -34.5 18.875 C-31.4236306 10.5146813 -25.81055899 5.90018095 -17.89453125 2.22265625 C-11.98708716 -0.08292913 -6.27773868 0.0571743 0 0 Z " fill="#030303" transform="translate(943.5625,160.6875)"/>
<path d="M0 0 C1.93693222 -0.01384483 1.93693222 -0.01384483 3.91299438 -0.02796936 C5.3135947 -0.00727774 6.71417901 0.01452306 8.11474609 0.03735352 C9.55772531 0.0409325 11.00071161 0.04228764 12.44369507 0.04151917 C15.46177181 0.04620258 18.47877525 0.07098319 21.49658203 0.11132812 C25.36501615 0.16239084 29.23227576 0.1737681 33.10100746 0.17149258 C36.07792372 0.17230809 39.05458318 0.18875628 42.03141403 0.2104969 C43.45795118 0.2200411 44.8845174 0.22595544 46.31108475 0.22817802 C48.30254841 0.23468042 50.29390285 0.26330946 52.28515625 0.29296875 C53.41813141 0.30440414 54.55110657 0.31583954 55.71841431 0.32762146 C58.51318359 0.72875977 58.51318359 0.72875977 60.37313843 2.13490295 C61.78321467 4.10628066 61.97663511 5.31655986 62.01318359 7.72875977 C62.04412109 8.40938477 62.07505859 9.09000977 62.10693359 9.79125977 C61.51318359 11.72875977 61.51318359 11.72875977 59.63549805 13.33154297 C55.079108 15.3704999 50.89714887 15.09966598 45.96240234 15.02172852 C44.94845901 15.01748367 43.93451569 15.01323883 42.8898468 15.00886536 C39.6598526 14.99210835 36.43048838 14.95446098 33.20068359 14.91625977 C31.00733325 14.90120911 28.81397309 14.88752137 26.62060547 14.87524414 C21.25102843 14.84476981 15.88280898 14.78604143 10.51318359 14.72875977 C10.51318359 22.64875977 10.51318359 30.56875977 10.51318359 38.72875977 C13.64302734 38.68235352 16.77287109 38.63594727 19.99755859 38.58813477 C23.02911762 38.55693918 26.06065876 38.53265136 29.09228516 38.5090332 C31.19913741 38.48891851 33.30593385 38.46162309 35.41259766 38.42700195 C38.44105806 38.37847808 41.46878038 38.3557896 44.49755859 38.33813477 C45.91026031 38.30716705 45.91026031 38.30716705 47.35150146 38.27557373 C53.86753797 38.27333818 53.86753797 38.27333818 57.11181641 40.56176758 C59.0072093 43.49269221 59.02304574 45.30539962 58.51318359 48.72875977 C56.65975584 51.28825523 55.57561966 51.70794774 52.51318359 52.72875977 C51.116629 52.81465279 49.71632582 52.84648692 48.31713867 52.84228516 C47.47649368 52.84220963 46.63584869 52.84213409 45.76972961 52.84205627 C44.86651474 52.83689499 43.96329987 52.8317337 43.03271484 52.82641602 C42.1047258 52.82500107 41.17673676 52.82358612 40.22062683 52.8221283 C37.25561301 52.81652913 34.2906746 52.80397681 31.32568359 52.79125977 C29.31591906 52.78624466 27.30615334 52.78168177 25.29638672 52.77758789 C20.36859989 52.76741072 15.44097619 52.74783509 10.51318359 52.72875977 C10.51318359 61.63875977 10.51318359 70.54875977 10.51318359 79.72875977 C15.74935547 79.65915039 15.74935547 79.65915039 21.09130859 79.58813477 C24.47036281 79.55694421 27.84940102 79.53265346 31.22851562 79.5090332 C33.57787244 79.48891162 35.92717914 79.46161126 38.27636719 79.42700195 C41.65230674 79.37850937 45.02758446 79.35579619 48.40380859 79.33813477 C49.45497864 79.31748962 50.50614868 79.29684448 51.58917236 79.27557373 C58.85529455 79.27333529 58.85529455 79.27333529 62.17236328 81.56958008 C64.04565367 84.58621886 64.15406053 86.2395409 63.51318359 89.72875977 C61.87199045 92.36203188 61.17950763 93.30764954 58.51318359 94.72875977 C53.82789478 95.47613102 49.15056417 95.38387255 44.41943359 95.32250977 C43.02608341 95.32079734 41.63273 95.32086569 40.23937988 95.32263184 C37.32398511 95.32098111 34.40936163 95.30233102 31.49414062 95.27075195 C27.76492089 95.23107399 24.03671041 95.22670799 20.30731964 95.23421478 C17.4315676 95.23729039 14.55604072 95.2251432 11.68034363 95.20808411 C10.3056937 95.20107343 8.93101825 95.19792722 7.55635071 95.19877625 C5.63238485 95.19697039 3.70847751 95.17327323 1.78466797 95.14868164 C0.69166382 95.14026245 -0.40134033 95.13184326 -1.52746582 95.12316895 C-4.92979006 94.66972219 -6.77764523 93.82006279 -9.48681641 91.72875977 C-12.15143896 88.22562094 -11.78938746 84.15646799 -11.79321289 79.93432617 C-11.80153641 79.15334061 -11.80985992 78.37235504 -11.81843567 77.56770325 C-11.84251101 74.98852539 -11.85130454 72.40960054 -11.85791016 69.83032227 C-11.86687811 68.0343722 -11.87599999 66.2384229 -11.88526917 64.44247437 C-11.90175482 60.67818385 -11.90945855 56.91398224 -11.91235352 53.1496582 C-11.91773804 48.33193554 -11.95542241 43.51505105 -12.00109768 38.69756508 C-12.03087537 34.98801642 -12.03807722 31.27866947 -12.03907967 27.56901169 C-12.04328028 25.79321833 -12.05570828 24.01742427 -12.07659721 22.24174881 C-12.10352848 19.75453711 -12.09868232 17.26926667 -12.08618164 14.78198242 C-12.10101593 14.05242844 -12.11585022 13.32287445 -12.13113403 12.57121277 C-12.07819432 8.86240231 -11.52082231 6.23629554 -9.3547821 3.27098083 C-5.93120044 0.23625087 -4.51327169 -0.01700604 0 0 Z " fill="#010102" transform="translate(645.48681640625,161.271240234375)"/>
<path d="M0 0 C1.93693222 -0.01384483 1.93693222 -0.01384483 3.91299438 -0.02796936 C5.3135947 -0.00727774 6.71417901 0.01452306 8.11474609 0.03735352 C9.55772531 0.0409325 11.00071161 0.04228764 12.44369507 0.04151917 C15.46177181 0.04620258 18.47877525 0.07098319 21.49658203 0.11132812 C25.36501615 0.16239084 29.23227576 0.1737681 33.10100746 0.17149258 C36.07792372 0.17230809 39.05458318 0.18875628 42.03141403 0.2104969 C43.45795118 0.2200411 44.8845174 0.22595544 46.31108475 0.22817802 C48.30254841 0.23468042 50.29390285 0.26330946 52.28515625 0.29296875 C53.41813141 0.30440414 54.55110657 0.31583954 55.71841431 0.32762146 C58.51318359 0.72875977 58.51318359 0.72875977 60.37313843 2.13490295 C61.78321467 4.10628066 61.97663511 5.31655986 62.01318359 7.72875977 C62.04412109 8.40938477 62.07505859 9.09000977 62.10693359 9.79125977 C61.51318359 11.72875977 61.51318359 11.72875977 59.63549805 13.33154297 C55.079108 15.3704999 50.89714887 15.09966598 45.96240234 15.02172852 C44.94845901 15.01748367 43.93451569 15.01323883 42.8898468 15.00886536 C39.6598526 14.99210835 36.43048838 14.95446098 33.20068359 14.91625977 C31.00733325 14.90120911 28.81397309 14.88752137 26.62060547 14.87524414 C21.25102843 14.84476981 15.88280898 14.78604143 10.51318359 14.72875977 C10.51318359 22.64875977 10.51318359 30.56875977 10.51318359 38.72875977 C13.64302734 38.68235352 16.77287109 38.63594727 19.99755859 38.58813477 C23.02911762 38.55693918 26.06065876 38.53265136 29.09228516 38.5090332 C31.19913741 38.48891851 33.30593385 38.46162309 35.41259766 38.42700195 C38.44105806 38.37847808 41.46878038 38.3557896 44.49755859 38.33813477 C45.91026031 38.30716705 45.91026031 38.30716705 47.35150146 38.27557373 C53.86753797 38.27333818 53.86753797 38.27333818 57.11181641 40.56176758 C59.0072093 43.49269221 59.02304574 45.30539962 58.51318359 48.72875977 C56.65975584 51.28825523 55.57561966 51.70794774 52.51318359 52.72875977 C51.116629 52.81465279 49.71632582 52.84648692 48.31713867 52.84228516 C47.47649368 52.84220963 46.63584869 52.84213409 45.76972961 52.84205627 C44.86651474 52.83689499 43.96329987 52.8317337 43.03271484 52.82641602 C42.1047258 52.82500107 41.17673676 52.82358612 40.22062683 52.8221283 C37.25561301 52.81652913 34.2906746 52.80397681 31.32568359 52.79125977 C29.31591906 52.78624466 27.30615334 52.78168177 25.29638672 52.77758789 C20.36859989 52.76741072 15.44097619 52.74783509 10.51318359 52.72875977 C10.51318359 61.63875977 10.51318359 70.54875977 10.51318359 79.72875977 C15.74935547 79.65915039 15.74935547 79.65915039 21.09130859 79.58813477 C24.47036281 79.55694421 27.84940102 79.53265346 31.22851562 79.5090332 C33.57787244 79.48891162 35.92717914 79.46161126 38.27636719 79.42700195 C41.65230674 79.37850937 45.02758446 79.35579619 48.40380859 79.33813477 C49.45497864 79.31748962 50.50614868 79.29684448 51.58917236 79.27557373 C58.85529455 79.27333529 58.85529455 79.27333529 62.17236328 81.56958008 C64.04565367 84.58621886 64.15406053 86.2395409 63.51318359 89.72875977 C61.87199045 92.36203188 61.17950763 93.30764954 58.51318359 94.72875977 C53.82789478 95.47613102 49.15056417 95.38387255 44.41943359 95.32250977 C43.02608341 95.32079734 41.63273 95.32086569 40.23937988 95.32263184 C37.32398511 95.32098111 34.40936163 95.30233102 31.49414062 95.27075195 C27.76492089 95.23107399 24.03671041 95.22670799 20.30731964 95.23421478 C17.4315676 95.23729039 14.55604072 95.2251432 11.68034363 95.20808411 C10.3056937 95.20107343 8.93101825 95.19792722 7.55635071 95.19877625 C5.63238485 95.19697039 3.70847751 95.17327323 1.78466797 95.14868164 C0.69166382 95.14026245 -0.40134033 95.13184326 -1.52746582 95.12316895 C-4.92979006 94.66972219 -6.77764523 93.82006279 -9.48681641 91.72875977 C-12.15143896 88.22562094 -11.78938746 84.15646799 -11.79321289 79.93432617 C-11.80153641 79.15334061 -11.80985992 78.37235504 -11.81843567 77.56770325 C-11.84251101 74.98852539 -11.85130454 72.40960054 -11.85791016 69.83032227 C-11.86687811 68.0343722 -11.87599999 66.2384229 -11.88526917 64.44247437 C-11.90175482 60.67818385 -11.90945855 56.91398224 -11.91235352 53.1496582 C-11.91773804 48.33193554 -11.95542241 43.51505105 -12.00109768 38.69756508 C-12.03087537 34.98801642 -12.03807722 31.27866947 -12.03907967 27.56901169 C-12.04328028 25.79321833 -12.05570828 24.01742427 -12.07659721 22.24174881 C-12.10352848 19.75453711 -12.09868232 17.26926667 -12.08618164 14.78198242 C-12.10101593 14.05242844 -12.11585022 13.32287445 -12.13113403 12.57121277 C-12.07819432 8.86240231 -11.52082231 6.23629554 -9.3547821 3.27098083 C-5.93120044 0.23625087 -4.51327169 -0.01700604 0 0 Z " fill="#010102" transform="translate(462.48681640625,161.271240234375)"/>
<path d="M0 0 C3.89588936 3.97932448 5.49640402 8.32283267 7.28515625 13.46875 C7.58148453 14.29733521 7.87781281 15.12592041 8.18312073 15.97961426 C9.13350865 18.64919598 10.06818145 21.32388494 11 24 C11.46439484 25.32354492 11.46439484 25.32354492 11.93817139 26.67382812 C13.81884705 32.03646915 15.67336806 37.40760537 17.50952148 42.78564453 C18.45645453 45.55544237 19.41078047 48.32262977 20.36523438 51.08984375 C20.97180004 52.8618266 21.57793702 54.63395627 22.18359375 56.40625 C22.61000404 57.63885559 22.61000404 57.63885559 23.04502869 58.8963623 C24.11142053 62.0384644 25 64.65757197 25 68 C25.66 68 26.32 68 27 68 C27.16911392 67.35127426 27.33822784 66.70254852 27.51246643 66.03416443 C29.44918621 58.75423477 31.69410302 51.6133656 34.08984375 44.47265625 C34.47564102 43.32131699 34.86143829 42.16997772 35.25892639 40.98374939 C36.06973415 38.5704801 36.88245876 36.15785406 37.69702148 33.74584961 C38.94097347 30.05218624 40.16868929 26.35335716 41.39648438 22.65429688 C42.18910511 20.3017465 42.98269096 17.94952101 43.77734375 15.59765625 C44.14101547 14.49349869 44.50468719 13.38934113 44.87937927 12.25172424 C45.22976761 11.22643112 45.58015594 10.201138 45.94116211 9.14477539 C46.24299911 8.24529678 46.54483612 7.34581818 46.8558197 6.41908264 C48.17630702 3.62724298 49.64503863 1.98318205 52 0 C57.2076736 -1.12535421 61.66910266 -0.83507284 66.1875 2 C68.46739186 5.77361411 68.53417797 8.73837625 68 13 C67.03682613 16.41757588 65.72778244 19.65751166 64.375 22.9375 C63.62716086 24.82092249 62.88108441 26.70504577 62.13671875 28.58984375 C61.76853027 29.51394043 61.4003418 30.43803711 61.02099609 31.39013672 C59.64937052 34.8962767 58.40807209 38.43909793 57.1875 42 C54.40234363 50.03625348 51.39347661 57.98679291 48.375 65.9375 C47.90731201 67.17048828 47.43962402 68.40347656 46.95776367 69.67382812 C45.64624673 73.11892336 44.32665093 76.56070644 43 80 C42.61875977 80.98887207 42.23751953 81.97774414 41.84472656 82.99658203 C41.49635742 83.88587402 41.14798828 84.77516602 40.7890625 85.69140625 C40.4895166 86.45783447 40.1899707 87.2242627 39.88134766 88.01391602 C37.91370149 92.44793307 35.45501968 95.18965631 31 97 C25.91029709 97.66120008 21.39628699 97.56885766 16.625 95.625 C9.39220875 88.39220875 6.73128561 77.20235143 3.375 67.75 C2.85561718 66.30263925 2.335504 64.8555404 1.81469727 63.40869141 C0.74254568 60.42918541 -0.32711112 57.44880274 -1.39501953 54.46777344 C-3.68745747 48.07691354 -6.01437125 41.69871252 -8.34954834 35.32336426 C-9.04636663 33.41908951 -9.74035957 31.51380277 -10.43408203 29.60839844 C-12.95400799 22.68708035 -12.95400799 22.68708035 -15.77734375 15.88671875 C-17.31416762 12.25824322 -17.56777899 9.90348055 -17 6 C-13.41670296 -1.03861918 -7.49162093 -1.84456691 0 0 Z " fill="#040203" transform="translate(551,161)"/>
<path d="M0 0 C0.71592316 -0.00700928 1.43184631 -0.01401855 2.16946411 -0.02124023 C4.53134168 -0.03881735 6.89201692 -0.02719963 9.25390625 -0.01367188 C10.89770741 -0.0163669 12.54150702 -0.02024941 14.18530273 -0.02526855 C17.62857253 -0.03116318 21.07142696 -0.02260216 24.51464844 -0.00390625 C28.92674318 0.01888371 33.33786467 0.00576037 37.74992371 -0.01819611 C41.14375126 -0.03265531 44.53734834 -0.02804763 47.93118286 -0.01768494 C49.55787267 -0.01501797 51.18458346 -0.0182864 52.81124878 -0.02760315 C55.08566653 -0.0377713 57.35851179 -0.02226664 59.6328125 0 C60.92646729 0.00318237 62.22012207 0.00636475 63.55297852 0.00964355 C66.81640625 0.51757812 66.81640625 0.51757812 69.23022461 2.33508301 C71.57845773 5.56611732 71.43118529 7.62397755 70.81640625 11.51757812 C69.08203125 14.22070312 69.08203125 14.22070312 65.81640625 16.51757812 C61.5309275 17.13792976 57.32241465 16.98733473 53.00390625 16.83007812 C51.83408203 16.80751953 50.66425781 16.78496094 49.45898438 16.76171875 C46.57681856 16.70289904 43.69726944 16.62074953 40.81640625 16.51757812 C40.82306808 17.39152725 40.82972992 18.26547638 40.83659363 19.16590881 C40.89681257 27.41945555 40.94243539 35.67292803 40.97184277 43.92664433 C40.98746988 48.16953499 41.00865382 52.41224347 41.04272461 56.6550293 C41.07542395 60.75287596 41.09328148 64.85054783 41.10103798 68.94851494 C41.10656257 70.508557 41.11735072 72.06858996 41.13359642 73.62855721 C41.155512 75.82101923 41.15836739 78.01276758 41.15698242 80.20532227 C41.16364426 81.45108536 41.17030609 82.69684845 41.1771698 83.98036194 C40.75117652 88.15714293 39.71846173 90.79063324 37.81640625 94.51757812 C33.99051581 97.3498324 29.3839605 97.19334818 24.81640625 96.51757812 C21.31750621 94.40365935 20.11061939 93.40021753 18.81640625 89.51757812 C18.72634085 87.1717521 18.69884032 84.82338097 18.70288086 82.47583008 C18.70273483 81.76338135 18.70258881 81.05093262 18.70243835 80.31689453 C18.70313474 77.96318512 18.71091433 75.60955495 18.71875 73.25585938 C18.72061515 71.62346947 18.7220386 69.99107901 18.72303772 68.35868835 C18.72685524 64.06296238 18.73667901 59.76727023 18.7477417 55.47155762 C18.75797226 51.0878139 18.76253887 46.70406472 18.76757812 42.3203125 C18.77830195 33.71938552 18.7953692 25.11848603 18.81640625 16.51757812 C18.08526611 16.53852539 17.35412598 16.55947266 16.60083008 16.58105469 C13.27699624 16.66438126 9.95338241 16.71629144 6.62890625 16.76757812 C4.90317383 16.81785156 4.90317383 16.81785156 3.14257812 16.86914062 C2.03076172 16.88203125 0.91894531 16.89492187 -0.2265625 16.90820312 C-1.2477417 16.92915039 -2.2689209 16.95009766 -3.32104492 16.97167969 C-6.93211845 16.39883561 -8.58580947 15.03575478 -11.18359375 12.51757812 C-11.8125 10.51757812 -11.8125 10.51757812 -11.74609375 8.51757812 C-11.74738281 7.85757813 -11.74867188 7.19757813 -11.75 6.51757812 C-10.03468438 0.46073954 -5.60524799 0.01378883 0 0 Z " fill="#020305" transform="translate(828.18359375,161.482421875)"/>
</svg>
